<svg width="125" height="44" viewBox="0 0 125 44" fill="none" xmlns="http://www.w3.org/2000/svg">
<path d="M21.024 13.96C22.992 13.96 24.528 14.536 25.632 15.688C26.736 16.824 27.288 18.464 27.288 20.608V31H24.168V20.728C24.168 19.4 23.816 18.4 23.112 17.728C22.424 17.04 21.52 16.696 20.4 16.696C19.152 16.696 18.152 17.048 17.4 17.752C16.664 18.456 16.296 19.536 16.296 20.992V31H13.176V20.728C13.176 19.384 12.848 18.376 12.192 17.704C11.552 17.032 10.672 16.696 9.552 16.696C8.288 16.696 7.272 17.056 6.504 17.776C5.752 18.48 5.376 19.552 5.376 20.992V31H2.256V14.2H5.28V16.408C5.792 15.624 6.488 15.024 7.368 14.608C8.248 14.176 9.264 13.96 10.416 13.96C11.6 13.96 12.632 14.184 13.512 14.632C14.392 15.08 15.056 15.712 15.504 16.528C16.064 15.712 16.824 15.08 17.784 14.632C18.76 14.184 19.84 13.96 21.024 13.96ZM36.6386 31.168C35.3426 31.168 34.1746 30.888 33.1346 30.328C32.0946 29.768 31.2786 28.992 30.6866 28C30.1106 26.992 29.8226 25.856 29.8226 24.592C29.8226 23.328 30.1106 22.2 30.6866 21.208C31.2786 20.216 32.0946 19.44 33.1346 18.88C34.1746 18.32 35.3426 18.04 36.6386 18.04C37.9506 18.04 39.1266 18.32 40.1666 18.88C41.2066 19.44 42.0146 20.216 42.5906 21.208C43.1826 22.2 43.4786 23.328 43.4786 24.592C43.4786 25.856 43.1826 26.992 42.5906 28C42.0146 28.992 41.2066 29.768 40.1666 30.328C39.1266 30.888 37.9506 31.168 36.6386 31.168ZM36.6386 28.6C37.7426 28.6 38.6546 28.232 39.3746 27.496C40.0946 26.76 40.4546 25.792 40.4546 24.592C40.4546 23.392 40.0946 22.424 39.3746 21.688C38.6546 20.952 37.7426 20.584 36.6386 20.584C35.5346 20.584 34.6226 20.952 33.9026 21.688C33.1986 22.424 32.8466 23.392 32.8466 24.592C32.8466 25.792 33.1986 26.76 33.9026 27.496C34.6226 28.232 35.5346 28.6 36.6386 28.6ZM58.4194 13.192V31H55.5394V29.344C55.0434 29.952 54.4274 30.408 53.6914 30.712C52.9714 31.016 52.1714 31.168 51.2914 31.168C50.0594 31.168 48.9474 30.896 47.9554 30.352C46.9794 29.808 46.2114 29.04 45.6514 28.048C45.0914 27.04 44.8114 25.888 44.8114 24.592C44.8114 23.296 45.0914 22.152 45.6514 21.16C46.2114 20.168 46.9794 19.4 47.9554 18.856C48.9474 18.312 50.0594 18.04 51.2914 18.04C52.1394 18.04 52.9154 18.184 53.6194 18.472C54.3234 18.76 54.9234 19.192 55.4194 19.768V13.192H58.4194ZM51.6514 28.6C52.3714 28.6 53.0194 28.44 53.5954 28.12C54.1714 27.784 54.6274 27.312 54.9634 26.704C55.2994 26.096 55.4674 25.392 55.4674 24.592C55.4674 23.792 55.2994 23.088 54.9634 22.48C54.6274 21.872 54.1714 21.408 53.5954 21.088C53.0194 20.752 52.3714 20.584 51.6514 20.584C50.9314 20.584 50.2834 20.752 49.7074 21.088C49.1314 21.408 48.6754 21.872 48.3394 22.48C48.0034 23.088 47.8354 23.792 47.8354 24.592C47.8354 25.392 48.0034 26.096 48.3394 26.704C48.6754 27.312 49.1314 27.784 49.7074 28.12C50.2834 28.44 50.9314 28.6 51.6514 28.6ZM74.2719 18.184V31H71.4159V29.368C70.9359 29.944 70.3359 30.392 69.6159 30.712C68.8959 31.016 68.1199 31.168 67.2879 31.168C65.5759 31.168 64.2239 30.696 63.2319 29.752C62.2559 28.792 61.7679 27.376 61.7679 25.504V18.184H64.7679V25.096C64.7679 26.248 65.0239 27.112 65.5359 27.688C66.0639 28.248 66.8079 28.528 67.7679 28.528C68.8399 28.528 69.6879 28.2 70.3119 27.544C70.9519 26.872 71.2719 25.912 71.2719 24.664V18.184H74.2719ZM81.9439 31.168C80.6159 31.168 79.5759 30.808 78.8239 30.088C78.0879 29.352 77.7199 28.32 77.7199 26.992V13.192H80.7199V26.776C80.7199 28.056 81.3199 28.696 82.5199 28.696C82.9199 28.696 83.2799 28.616 83.5999 28.456L83.7439 30.856C83.1839 31.064 82.5839 31.168 81.9439 31.168ZM90.1264 15.448C88.8624 15.448 88.2304 16.136 88.2304 17.512V18.28H91.7584V20.68H88.3024V31H85.3024V17.464C85.3024 16.104 85.7024 15.024 86.5024 14.224C87.3024 13.424 88.4384 13.024 89.9104 13.024C91.0464 13.024 91.9424 13.256 92.5984 13.72L91.7584 15.976C91.2784 15.624 90.7344 15.448 90.1264 15.448ZM95.6944 18.184H98.6944V31H95.6944V18.184ZM97.2064 16.072C96.6624 16.072 96.2064 15.904 95.8384 15.568C95.4704 15.216 95.2864 14.784 95.2864 14.272C95.2864 13.76 95.4704 13.336 95.8384 13C96.2064 12.648 96.6624 12.472 97.2064 12.472C97.7504 12.472 98.2064 12.64 98.5744 12.976C98.9424 13.296 99.1264 13.704 99.1264 14.2C99.1264 14.728 98.9424 15.176 98.5744 15.544C98.2224 15.896 97.7664 16.072 97.2064 16.072ZM109.343 30.304C108.991 30.592 108.559 30.808 108.047 30.952C107.551 31.096 107.023 31.168 106.463 31.168C105.055 31.168 103.967 30.8 103.199 30.064C102.431 29.328 102.047 28.256 102.047 26.848V15.352H105.047V18.28H108.479V20.68H105.047V26.776C105.047 27.4 105.199 27.88 105.503 28.216C105.823 28.536 106.263 28.696 106.823 28.696C107.495 28.696 108.055 28.52 108.503 28.168L109.343 30.304Z" fill="white"/>
</svg>
